<svg width="29" height="29" viewBox="0 0 29 29" fill="none" xmlns="http://www.w3.org/2000/svg">
<path d="M20.3616 17.9182H19.0748L18.6187 17.4784C20.215 15.6214 21.1761 13.2106 21.1761 10.588C21.1761 4.74019 16.4359 0 10.588 0C4.74019 0 0 4.74019 0 10.588C0 16.4359 4.74019 21.1761 10.588 21.1761C13.2106 21.1761 15.6214 20.215 17.4784 18.6187L17.9182 19.0748V20.3616L26.0629 28.49L28.49 26.0629L20.3616 17.9182ZM10.588 17.9182C6.53201 17.9182 3.25786 14.6441 3.25786 10.588C3.25786 6.53201 6.53201 3.25786 10.588 3.25786C14.6441 3.25786 17.9182 6.53201 17.9182 10.588C17.9182 14.6441 14.6441 17.9182 10.588 17.9182Z" fill="white"/>
</svg>
