<svg width="131" height="99" viewBox="0 0 131 99" fill="none" xmlns="http://www.w3.org/2000/svg">
<circle cx="61.5" cy="18.5" r="18.5" fill="#FF0000"/>
<path d="M61.2507 18.4997L86.5308 3.4027L86.9651 32.8444L61.2507 18.4997Z" fill="white"/>
<path d="M9.73779 77.769L6.52197 81.1113V90H3.05322V63.6953H6.52197V76.7031L18.2109 63.6953H22.4023L12.0503 75.312L23.2153 90H19.0601L9.73779 77.769ZM37.7949 90C37.6022 89.6146 37.4456 88.9281 37.3252 87.9404C35.7715 89.5544 33.9167 90.3613 31.7607 90.3613C29.8337 90.3613 28.2498 89.8193 27.0093 88.7354C25.7808 87.6393 25.1665 86.2542 25.1665 84.5801C25.1665 82.5446 25.9373 80.9668 27.479 79.8467C29.0327 78.7145 31.2127 78.1484 34.019 78.1484H37.271V76.6128C37.271 75.4445 36.9217 74.5171 36.2231 73.8306C35.5246 73.132 34.4948 72.7827 33.1338 72.7827C31.9414 72.7827 30.9417 73.0838 30.1348 73.686C29.3278 74.2882 28.9243 75.0169 28.9243 75.8721H25.564C25.564 74.8965 25.9072 73.957 26.5938 73.0537C27.2923 72.1383 28.2318 71.4157 29.4121 70.8857C30.6045 70.3558 31.9113 70.0908 33.3325 70.0908C35.5848 70.0908 37.3493 70.6569 38.626 71.7891C39.9027 72.9092 40.5651 74.4569 40.6133 76.4321V85.4292C40.6133 87.2238 40.8421 88.651 41.2998 89.7109V90H37.7949ZM32.2485 87.4526C33.2964 87.4526 34.29 87.1816 35.2295 86.6396C36.1689 86.0977 36.8494 85.3931 37.271 84.5259V80.5151H34.6514C30.5563 80.5151 28.5088 81.7135 28.5088 84.1104C28.5088 85.1582 28.8581 85.9772 29.5566 86.5674C30.2552 87.1576 31.1525 87.4526 32.2485 87.4526ZM57.2344 84.8149C57.2344 83.9116 56.8911 83.2131 56.2046 82.7192C55.5301 82.2134 54.3438 81.7798 52.6455 81.4185C50.9593 81.0571 49.6164 80.6235 48.6167 80.1177C47.6291 79.6118 46.8944 79.0096 46.4126 78.311C45.9429 77.6125 45.708 76.7814 45.708 75.8179C45.708 74.216 46.3825 72.861 47.7314 71.7529C49.0924 70.6449 50.8268 70.0908 52.9346 70.0908C55.1507 70.0908 56.9453 70.6629 58.3184 71.8071C59.7035 72.9513 60.396 74.4147 60.396 76.1973H57.0356C57.0356 75.2819 56.6442 74.493 55.8613 73.8306C55.0905 73.1681 54.1149 72.8369 52.9346 72.8369C51.7181 72.8369 50.7666 73.1019 50.0801 73.6318C49.3936 74.1618 49.0503 74.8543 49.0503 75.7095C49.0503 76.5164 49.3695 77.1247 50.0078 77.5342C50.6462 77.9437 51.7964 78.3351 53.4585 78.7085C55.1326 79.0819 56.4876 79.5275 57.5234 80.0454C58.5592 80.5633 59.3241 81.1896 59.8179 81.9243C60.3237 82.647 60.5767 83.5322 60.5767 84.5801C60.5767 86.3265 59.8781 87.7297 58.481 88.7896C57.0838 89.8374 55.2712 90.3613 53.043 90.3613C51.4772 90.3613 50.0921 90.0843 48.8877 89.5303C47.6833 88.9762 46.7378 88.2054 46.0513 87.2178C45.3768 86.2181 45.0396 85.1401 45.0396 83.9839H48.3818C48.4421 85.104 48.8877 85.9953 49.7188 86.6577C50.5618 87.3081 51.6699 87.6333 53.043 87.6333C54.3076 87.6333 55.3193 87.3804 56.0781 86.8745C56.849 86.3566 57.2344 85.6701 57.2344 84.8149ZM68.562 90H65.2197V70.4521H68.562V90ZM64.9487 65.2671C64.9487 64.7251 65.1113 64.2674 65.4365 63.894C65.7738 63.5207 66.2676 63.334 66.918 63.334C67.5684 63.334 68.0622 63.5207 68.3994 63.894C68.7367 64.2674 68.9053 64.7251 68.9053 65.2671C68.9053 65.8091 68.7367 66.2607 68.3994 66.6221C68.0622 66.9834 67.5684 67.1641 66.918 67.1641C66.2676 67.1641 65.7738 66.9834 65.4365 66.6221C65.1113 66.2607 64.9487 65.8091 64.9487 65.2671ZM73.0425 80.0454C73.0425 78.1304 73.4159 76.408 74.1626 74.8784C74.9214 73.3488 75.9692 72.1685 77.3062 71.3374C78.6551 70.5063 80.1908 70.0908 81.9131 70.0908C84.5749 70.0908 86.7248 71.0122 88.3628 72.855C90.0129 74.6978 90.8379 77.1488 90.8379 80.208V80.4429C90.8379 82.3459 90.4705 84.0562 89.7358 85.5737C89.0132 87.0793 87.9714 88.2536 86.6104 89.0967C85.2614 89.9398 83.7077 90.3613 81.9492 90.3613C79.2995 90.3613 77.1496 89.4399 75.4995 87.5972C73.8615 85.7544 73.0425 83.3154 73.0425 80.2803V80.0454ZM76.4028 80.4429C76.4028 82.6108 76.9027 84.3512 77.9023 85.6641C78.9141 86.9769 80.263 87.6333 81.9492 87.6333C83.6475 87.6333 84.9964 86.9709 85.9961 85.646C86.9958 84.3091 87.4956 82.4422 87.4956 80.0454C87.4956 77.9015 86.9837 76.1672 85.96 74.8423C84.9482 73.5054 83.5993 72.8369 81.9131 72.8369C80.263 72.8369 78.9321 73.4933 77.9204 74.8062C76.9087 76.119 76.4028 77.9979 76.4028 80.4429ZM100.485 80.9487L98.3896 83.1348V90H95.0474V62.25H98.3896V79.0337L100.178 76.8838L106.267 70.4521H110.332L102.726 78.6182L111.217 90H107.296L100.485 80.9487ZM121.533 90.3613C118.883 90.3613 116.727 89.4941 115.065 87.7598C113.403 86.0133 112.572 83.6828 112.572 80.7681V80.1538C112.572 78.2147 112.939 76.4863 113.674 74.9688C114.421 73.4391 115.456 72.2467 116.781 71.3916C118.118 70.5244 119.563 70.0908 121.117 70.0908C123.659 70.0908 125.634 70.9279 127.043 72.6021C128.452 74.2762 129.157 76.673 129.157 79.7925V81.1836H115.914C115.962 83.1107 116.522 84.6704 117.594 85.8628C118.678 87.0431 120.051 87.6333 121.713 87.6333C122.894 87.6333 123.893 87.3924 124.712 86.9106C125.531 86.4289 126.248 85.7905 126.862 84.9956L128.904 86.5854C127.266 89.1027 124.809 90.3613 121.533 90.3613ZM121.117 72.8369C119.768 72.8369 118.636 73.3307 117.721 74.3184C116.805 75.2939 116.239 76.667 116.022 78.4375H125.814V78.1846C125.718 76.4863 125.26 75.1735 124.441 74.2461C123.622 73.3066 122.514 72.8369 121.117 72.8369Z" fill="white"/>
</svg>
